<?xml version="1.0" encoding="UTF-8" standalone="no"?>
<!-- Created with Inkscape (http://www.inkscape.org/) -->

<svg
   width="30.147589mm"
   height="30.100271mm"
   viewBox="0 0 30.14759 30.100271"
   version="1.1"
   id="svg15347"
   xml:space="preserve"
   inkscape:version="1.2.2 (b0a8486541, 2022-12-01)"
   sodipodi:docname="favorite-c.svg"
   xmlns:inkscape="http://www.inkscape.org/namespaces/inkscape"
   xmlns:sodipodi="http://sodipodi.sourceforge.net/DTD/sodipodi-0.dtd"
   xmlns="http://www.w3.org/2000/svg"
   xmlns:svg="http://www.w3.org/2000/svg"><sodipodi:namedview
     id="namedview15349"
     pagecolor="#ffffff"
     bordercolor="#000000"
     borderopacity="0.25"
     inkscape:showpageshadow="2"
     inkscape:pageopacity="0.0"
     inkscape:pagecheckerboard="0"
     inkscape:deskcolor="#d1d1d1"
     inkscape:document-units="mm"
     showgrid="false"
     inkscape:zoom="0.69664703"
     inkscape:cx="12.919025"
     inkscape:cy="12.919025"
     inkscape:window-width="1920"
     inkscape:window-height="1011"
     inkscape:window-x="0"
     inkscape:window-y="0"
     inkscape:window-maximized="1"
     inkscape:current-layer="layer1" /><defs
     id="defs15344" /><g
     inkscape:label="Layer 1"
     inkscape:groupmode="layer"
     id="layer1"
     transform="translate(-101.66203,-145.19311)"><path
       d="m 116.71436,174.06985 -2.05272,-1.98348 q -3.57459,-3.47103 -5.91052,-5.98855 -2.33588,-2.51747 -3.71618,-4.51997 -1.3803,-2.00257 -1.92885,-3.68088 -0.5486,-1.67831 -0.5486,-3.43291 0,-3.5855 2.22972,-5.98855 2.22971,-2.40306 5.55658,-2.40306 1.8404,0 3.50381,0.83915 1.66346,0.83916 2.86676,2.36489 1.20336,-1.52573 2.86682,-2.36489 1.66341,-0.83915 3.50381,-0.83915 3.32686,0 5.55658,2.40306 2.22972,2.40305 2.22972,5.98855 0,1.7546 -0.5486,3.43291 -0.54855,1.67831 -1.92885,3.68088 -1.38031,2.0025 -3.71618,4.51997 -2.33593,2.51752 -5.91053,5.98855 z m 0,-4.11948 q 3.39766,-3.28039 5.59201,-5.62618 2.19429,-2.34585 3.46844,-4.08137 1.27409,-1.73557 1.76961,-3.08968 0.49547,-1.35406 0.49547,-2.68908 0,-2.28865 -1.41567,-3.81437 -1.41572,-1.52579 -3.53923,-1.52579 -1.66346,0 -3.07913,1.01083 -1.41567,1.01082 -1.94656,2.57473 h -2.68982 q -0.53078,-1.56391 -1.94656,-2.57473 -1.41567,-1.01083 -3.07913,-1.01083 -2.12356,0 -3.53923,1.52579 -1.41567,1.52572 -1.41567,3.81437 0,1.33502 0.49546,2.68908 0.49547,1.35411 1.76962,3.08968 1.27415,1.73552 3.46844,4.08137 2.1943,2.34579 5.59195,5.62618 z m 0,-10.41321 z"
       id="path16944"
       style="stroke-width:0.0367422" /><path
       style="opacity:0.999749;fill:#d9d9d9;fill-rule:evenodd;stroke-width:1.90197"
       d="m 424.16568,639.88149 c -25.31755,-25.31755 -34.02411,-38.06537 -35.44017,-51.89018 -1.96552,-19.18914 11.45825,-35.4474 29.15616,-35.31263 5.03513,0.0384 15.89964,4.80026 20.23272,8.868 l 3.1739,2.97954 5.04069,-4.42578 c 14.46757,-12.70269 35.14725,-8.47361 44.27467,9.05436 6.6741,12.8167 2.84522,30.46513 -10.12121,46.65161 -6.33108,7.90333 -37.82737,40.19295 -39.20544,40.19295 -0.5464,0 -8.24649,-7.25304 -17.11132,-16.11787 z m 32.30169,-11.68651 c 23.20187,-24.95068 27.976,-32.69697 27.98268,-45.40343 0.005,-9.43783 -9.92805,-20.12293 -18.64744,-20.05937 -5.9672,0.0435 -15.28653,5.12749 -18.08589,9.86642 -3.73788,6.32774 -7.92909,5.81293 -15.31241,-1.88083 -10.11822,-10.54366 -23.53351,-10.26564 -30.93932,0.64118 -2.89266,4.26012 -3.30173,6.34556 -2.85335,14.54635 0.45785,8.37416 1.23754,10.61048 6.22483,17.85407 5.89277,8.55874 34.53835,39.32096 36.61541,39.32096 0.64541,0 7.40238,-6.69841 15.01549,-14.88535 z"
       id="path17318"
       transform="scale(0.26458333)" /><path
       style="opacity:0.999749;fill:#d9d9d9;fill-rule:evenodd;stroke-width:1.90197"
       d="m 423.46024,637.6974 c -17.77244,-17.81724 -28.61656,-31.59366 -31.72942,-40.3092 -2.5728,-7.20345 -2.46816,-19.32645 0.2224,-25.76747 2.59194,-6.20489 8.32572,-12.62804 13.84818,-15.5131 8.40294,-4.38991 23.59345,-1.5032 31.39088,5.96531 l 3.68723,3.5317 6.9339,-5.40216 c 6.56251,-5.1128 7.49193,-5.40215 17.35237,-5.40215 9.46043,0 10.92573,0.40365 15.93464,4.38955 14.70428,11.70108 15.68508,30.80208 2.59404,50.51861 -5.09635,7.67567 -40.19282,44.85542 -42.34204,44.85542 -0.58745,0 -8.63893,-7.58993 -17.89218,-16.86651 z m 29.68743,-5.02406 c 14.16656,-14.99783 24.80022,-28.15334 28.4644,-35.21495 2.57943,-4.97107 3.06834,-7.82468 2.55544,-14.91542 -0.58466,-8.08289 -1.09846,-9.2013 -6.57309,-14.30798 -4.59513,-4.28629 -7.09861,-5.5397 -11.06461,-5.5397 -6.86568,0 -13.46408,2.99588 -18.57999,8.43589 -5.33711,5.67523 -7.5606,5.62654 -14.54526,-0.3185 -7.858,-6.68839 -11.01217,-8.11739 -17.91711,-8.11739 -5.06168,0 -6.88056,0.87553 -11.57829,5.57326 l -5.57326,5.57326 0.3685,11.29324 c 0.32808,10.05433 0.8723,12.02012 4.96082,17.91896 7.14377,10.30692 34.92816,40.02632 37.42023,40.02632 1.22763,0 6.65563,-4.68315 12.06222,-10.40699 z"
       id="path17324"
       transform="scale(0.26458333)" /><path
       style="opacity:0.999749;fill:#d9d9d9;fill-rule:evenodd;stroke-width:1.90197"
       d="m 423.44219,637.8273 c -17.04076,-17.1041 -27.72867,-30.56024 -31.56383,-39.73908 -2.79241,-6.68316 -2.75561,-19.69154 0.0749,-26.46749 2.59194,-6.20489 8.32572,-12.62804 13.84818,-15.5131 8.43589,-4.40712 25.26203,-1.04717 31.85128,6.36026 l 2.71218,3.04896 7.29941,-5.35826 c 6.82844,-5.01254 7.96463,-5.35826 17.6097,-5.35826 9.33976,0 10.82953,0.4132 15.82645,4.38955 14.70428,11.70108 15.68508,30.80208 2.59404,50.51861 -5.20902,7.84536 -40.21441,44.85542 -42.42579,44.85542 -0.63352,0 -8.65543,-7.53148 -17.82648,-16.73661 z m 30.36789,-6.58941 c 13.84292,-14.09703 23.83992,-26.36388 27.78063,-34.08832 3.43607,-6.73525 3.87198,-18.89548 0.78789,-21.97956 -1.14665,-1.14665 -1.7709,-2.39873 -1.38723,-2.7824 0.38367,-0.38367 -1.60742,-2.72139 -4.42465,-5.19495 -8.17713,-7.17962 -19.45658,-5.54026 -28.77065,4.18154 -5.22364,5.4523 -8.02647,5.34192 -14.64575,-0.57679 -7.37516,-6.59458 -10.66163,-8.10212 -17.66287,-8.10212 -5.04294,0 -6.88202,0.87698 -11.47881,5.47377 -5.23062,5.23063 -5.47064,5.88421 -5.40325,14.71334 0.0944,12.36454 3.08311,18.7296 15.19633,32.36335 14.21814,16.00291 25.77066,27.83458 27.17786,27.83458 0.66084,0 6.43457,-5.3291 12.8305,-11.84244 z"
       id="path17326"
       transform="scale(0.26458333)" /><path
       style="opacity:0.999749;fill:#d9d9d9;fill-rule:evenodd;stroke-width:1.90197"
       d="m 423.57499,638.20562 c -16.62994,-16.72274 -27.86108,-30.93763 -31.69663,-40.1174 -2.79241,-6.68316 -2.75561,-19.69154 0.0749,-26.46749 2.59194,-6.20489 8.32572,-12.62804 13.84818,-15.5131 8.13172,-4.24821 23.44778,-1.54303 30.89961,5.4576 3.56278,3.34706 5.97613,2.75496 13.50656,-3.31377 4.22842,-3.40766 14.19771,-5.01979 21.99556,-3.5569 6.53633,1.22622 14.82367,8.46032 18.19589,15.88338 5.56826,12.25706 1.78307,28.99027 -9.85489,43.56547 -7.56461,9.47382 -37.83764,40.4205 -39.54061,40.4205 -0.63857,0 -8.48141,-7.36123 -17.42853,-16.35829 z m 30.94881,-7.68545 c 14.99246,-15.56565 23.82307,-26.61456 27.2472,-34.09187 3.29318,-7.19137 3.5205,-18.3454 0.43672,-21.42918 -1.24064,-1.24063 -1.77399,-2.2557 -1.18523,-2.2557 0.58876,0 -0.44424,-1.61233 -2.29554,-3.58296 -1.85131,-1.97062 -3.65568,-3.29329 -4.00972,-2.93925 -0.35404,0.35404 -1.58188,-0.29446 -2.72853,-1.4411 -2.55653,-2.55653 -11.02134,-2.73664 -13.65384,-0.29051 -1.06206,0.98687 -2.88456,2.00087 -4.05001,2.25335 -1.16544,0.25247 -4.0876,2.35181 -6.49367,4.6652 -2.40607,2.31339 -5.40401,4.20616 -6.66208,4.20616 -1.25807,0 -5.42381,-2.59178 -9.25721,-5.75952 -3.8334,-3.16773 -7.77944,-5.44883 -8.76898,-5.06911 -0.98954,0.37972 -1.79917,0.0647 -1.79917,-0.69999 0,-2.42269 -9.14761,-1.49112 -13.91761,1.41733 -7.6006,4.63438 -9.08787,8.18 -8.4063,20.04047 0.51808,9.01542 1.29981,11.54377 5.54696,17.94044 4.98178,7.5031 34.82923,39.5964 36.8255,39.5964 0.59062,0 6.51781,-5.65207 13.17151,-12.56016 z"
       id="path17328"
       transform="scale(0.26458333)" /><path
       style="opacity:0.999749;fill:#d9d9d9;fill-rule:evenodd;stroke-width:1.90197"
       d="m 424.27194,639.06556 c -27.15055,-27.55528 -34.46268,-39.11161 -34.51651,-54.55099 -0.0606,-17.38364 11.24158,-30.43196 26.35952,-30.43196 7.57028,0 12.55529,1.68025 19.82699,6.68288 l 5.30779,3.65155 6.42397,-4.61334 c 11.22102,-8.05834 25.84529,-7.68161 35.35605,0.91079 11.35513,10.25868 12.97097,25.50463 4.52205,42.66684 -3.49939,7.10825 -9.38386,14.28657 -24.79857,30.25116 -11.11576,11.51228 -20.8855,20.93142 -21.71053,20.93142 -0.82503,0 -8.37187,-6.97426 -16.77076,-15.49835 z m 30.24281,-8.60212 c 12.19928,-12.82046 22.20717,-24.70474 20.80413,-24.70474 -0.4252,0 0.75928,-1.53237 2.63218,-3.40527 6.62626,-6.62627 8.20453,-19.09786 3.54749,-28.03259 -2.80189,-5.37554 -7.08326,-10.27761 -7.08326,-8.11016 0,0.54781 -1.01507,-0.019 -2.2557,-1.25969 -2.83211,-2.83211 -11.21483,-2.93458 -13.97853,-0.17088 -1.14664,1.14664 -2.46948,1.70014 -2.93963,1.22999 -0.47016,-0.47015 -1.26069,0.20285 -1.75675,1.49556 -0.49606,1.29271 -1.38629,2.05102 -1.9783,1.68514 -0.59201,-0.36588 -2.57478,0.92973 -4.40615,2.87914 -4.5108,4.80152 -6.661,4.49838 -15.56907,-2.19502 -4.20113,-3.15667 -8.22094,-5.37937 -8.93292,-4.93935 -0.71197,0.44003 -1.2945,0.11597 -1.2945,-0.72012 0,-2.53184 -9.02793,-1.69386 -13.92592,1.29262 -6.88217,4.19631 -8.87477,9.1953 -8.03569,20.15971 0.90131,11.77754 3.29879,16.87416 12.52944,26.63544 4.06198,4.29548 7.05365,7.80996 6.64816,7.80996 -0.40549,0 4.40005,5.16761 10.67897,11.48357 6.27893,6.31597 11.84243,11.48358 12.36335,11.48358 0.52092,0 6.34963,-5.6776 12.9527,-12.61689 z"
       id="path17330"
       transform="scale(0.26458333)" /></g></svg>
