<?xml version="1.0" encoding="UTF-8" standalone="no"?>
<!-- Created with Inkscape (http://www.inkscape.org/) -->

<svg
   width="50.571991mm"
   height="44.047367mm"
   viewBox="0 0 50.571989 44.047366"
   version="1.1"
   id="svg8897"
   xml:space="preserve"
   inkscape:version="1.2.2 (b0a8486541, 2022-12-01)"
   sodipodi:docname="logout-c.svg"
   xmlns:inkscape="http://www.inkscape.org/namespaces/inkscape"
   xmlns:sodipodi="http://sodipodi.sourceforge.net/DTD/sodipodi-0.dtd"
   xmlns="http://www.w3.org/2000/svg"
   xmlns:svg="http://www.w3.org/2000/svg"><sodipodi:namedview
     id="namedview8899"
     pagecolor="#ffffff"
     bordercolor="#000000"
     borderopacity="0.25"
     inkscape:showpageshadow="2"
     inkscape:pageopacity="0.0"
     inkscape:pagecheckerboard="0"
     inkscape:deskcolor="#d1d1d1"
     inkscape:document-units="mm"
     showgrid="false"
     inkscape:zoom="0.69664703"
     inkscape:cx="21.531708"
     inkscape:cy="20.09626"
     inkscape:window-width="1920"
     inkscape:window-height="1011"
     inkscape:window-x="0"
     inkscape:window-y="0"
     inkscape:window-maximized="1"
     inkscape:current-layer="layer1" /><defs
     id="defs8894" /><g
     inkscape:label="Layer 1"
     inkscape:groupmode="layer"
     id="layer1"
     transform="translate(-99.536065,-143.07605)"><path
       d="m 107.71265,183.69053 q -2.01734,0 -3.45391,-1.22628 -1.43667,-1.22636 -1.43667,-2.94839 v -29.22244 q 0,-1.72203 1.43667,-2.94839 1.43657,-1.22628 3.45391,-1.22628 h 17.11689 v 4.17467 h -17.11689 v 29.22244 h 17.11689 v 4.17467 z m 26.89805,-8.34926 -3.36223,-3.02665 6.23538,-5.32269 h -19.99013 v -4.17459 h 19.99013 l -6.23538,-5.32268 3.36223,-3.02665 12.22632,10.43663 z"
       id="path10532"
       style="stroke-width:0.0564804" /><path
       style="opacity:0.999749;fill:#d9d9d9;fill-rule:evenodd;stroke-width:1.90197"
       d="m 398.89371,691.91414 c -1.66732,-0.67367 -4.41261,-2.98067 -6.10065,-5.12666 -3.02364,-3.84393 -3.06915,-4.78822 -3.06915,-63.6776 0,-65.92091 -0.30591,-63.64061 9.1388,-68.12242 4.12618,-1.958 10.46549,-2.3403 38.80675,-2.3403 h 33.87493 v 7.17724 7.17723 h -32.29756 -32.29756 v 55.98244 55.98244 h 32.29756 32.29756 v 7.17724 7.17723 l -34.80959,-0.091 c -19.14528,-0.05 -36.17377,-0.64217 -37.84109,-1.31585 z"
       id="path13862"
       transform="scale(0.26458333)" /><path
       style="opacity:0.999749;fill:#d9d9d9;fill-rule:evenodd;stroke-width:1.90197"
       d="m 502.72427,656.32477 -5.28895,-5.41637 11.78387,-10.01469 11.78387,-10.01468 -38.36608,-0.38231 -38.36608,-0.38231 v -7.13034 -7.13034 l 38.2002,-0.38231 38.20019,-0.38231 -11.84244,-9.99246 -11.84245,-9.99246 5.49456,-4.74967 c 3.02201,-2.61232 6.10005,-4.54784 6.84009,-4.30116 2.39704,0.79901 43.87384,36.18137 43.59561,37.18984 -0.27398,0.9931 -43.5553,38.49794 -44.42736,38.49794 -0.26185,0 -2.85611,-2.43736 -5.76503,-5.41637 z"
       id="path13864"
       transform="scale(0.26458333)" /><path
       style="opacity:0.999749;fill:#d9d9d9;fill-rule:evenodd;stroke-width:1.90197"
       d="m 503.33536,655.49947 -4.69612,-4.84517 11.85599,-9.88764 11.85598,-9.88763 -39.75788,-0.38157 -39.75788,-0.38157 v -7.15453 -7.15453 h 38.87669 c 21.38219,0 38.66138,-0.55434 38.39822,-1.23187 -0.26317,-0.67754 -5.24128,-5.32531 -11.06248,-10.32837 l -10.58399,-9.0965 4.50599,-4.0261 c 2.47829,-2.21435 5.11415,-4.0261 5.85745,-4.0261 1.42855,0 36.37538,29.24929 40.48888,33.88779 2.31145,2.60646 1.56356,3.45602 -18.14021,20.6065 -11.30308,9.83838 -21.13458,18.08248 -21.84778,18.32021 -0.7132,0.23773 -3.40999,-1.74808 -5.99286,-4.41292 z"
       id="path13866"
       transform="scale(0.26458333)" /></g></svg>
