<?xml version="1.0" encoding="UTF-8" standalone="no"?>
<!-- Created with Inkscape (http://www.inkscape.org/) -->

<svg
   width="46.882332mm"
   height="40.384418mm"
   viewBox="0 0 46.882333 40.384419"
   version="1.1"
   id="svg5"
   xml:space="preserve"
   inkscape:version="1.2.2 (b0a8486541, 2022-12-01)"
   sodipodi:docname="menu-c.svg"
   xmlns:inkscape="http://www.inkscape.org/namespaces/inkscape"
   xmlns:sodipodi="http://sodipodi.sourceforge.net/DTD/sodipodi-0.dtd"
   xmlns="http://www.w3.org/2000/svg"
   xmlns:svg="http://www.w3.org/2000/svg"><sodipodi:namedview
     id="namedview7"
     pagecolor="#ffffff"
     bordercolor="#000000"
     borderopacity="0.25"
     inkscape:showpageshadow="2"
     inkscape:pageopacity="0.0"
     inkscape:pagecheckerboard="0"
     inkscape:deskcolor="#d1d1d1"
     inkscape:document-units="mm"
     showgrid="false"
     inkscape:zoom="0.69664703"
     inkscape:cx="-0.71772358"
     inkscape:cy="-14.354472"
     inkscape:window-width="1920"
     inkscape:window-height="1011"
     inkscape:window-x="0"
     inkscape:window-y="0"
     inkscape:window-maximized="1"
     inkscape:current-layer="layer1" /><defs
     id="defs2" /><g
     inkscape:label="Layer 1"
     inkscape:groupmode="layer"
     id="layer1"
     transform="translate(-100.55677,-152.24603)"><path
       d="m 102.82207,189.14857 v -5.65373 h 42.75242 v 5.65373 z m 0,-14.13425 v -5.65362 h 42.75242 v 5.65362 z m 0,-14.13415 v -5.65371 h 42.75242 v 5.65371 z"
       id="path1474"
       style="stroke-width:0.064779" /><path
       style="opacity:0.999749;fill:#d9d9d9;fill-rule:evenodd;stroke-width:1.90197"
       d="m 389.72391,597.14602 v -10.04813 h 79.66731 79.66732 v 10.04813 10.04813 h -79.66732 -79.66731 z"
       id="path2019"
       transform="scale(0.26458333)" /><path
       style="opacity:0.999749;fill:#d9d9d9;fill-rule:evenodd;stroke-width:1.90197"
       d="m 389.72391,650.25757 v -10.04813 h 79.66731 79.66732 v 10.04813 10.04813 h -79.66732 -79.66731 z"
       id="path2021"
       transform="scale(0.26458333)" /><path
       style="opacity:0.999749;fill:#d9d9d9;fill-rule:evenodd;stroke-width:1.90197"
       d="m 389.72391,704.80456 v -10.04813 h 79.66731 79.66732 v 10.04813 10.04813 h -79.66732 -79.66731 z"
       id="path2023"
       transform="scale(0.26458333)" /><path
       style="opacity:0.999749;fill:#d9d9d9;fill-opacity:1;fill-rule:evenodd;stroke-width:1.90197"
       d="m 389.72391,597.14602 v -10.04813 h 79.66731 79.66732 v 10.04813 10.04813 h -79.66732 -79.66731 z"
       id="path5207"
       transform="scale(0.26458333)" /><path
       style="opacity:0.999749;fill:#d9d9d9;fill-opacity:1;fill-rule:evenodd;stroke-width:1.90197"
       d="m 389.72391,597.14602 v -10.04813 h 79.66731 79.66732 v 10.04813 10.04813 h -79.66732 -79.66731 z"
       id="path5209"
       transform="scale(0.26458333)" /><path
       style="opacity:0.999749;fill:#d9d9d9;fill-opacity:1;fill-rule:evenodd;stroke-width:1.90197"
       d="m 389.72391,650.25757 v -10.04813 h 79.66731 79.66732 v 10.04813 10.04813 h -79.66732 -79.66731 z"
       id="path8661"
       transform="scale(0.26458333)" /><path
       style="opacity:0.999749;fill:#d9d9d9;fill-opacity:1;fill-rule:evenodd;stroke-width:1.90197"
       d="m 389.72391,704.80456 v -10.04813 h 79.66731 79.66732 v 10.04813 10.04813 h -79.66732 -79.66731 z"
       id="path8663"
       transform="scale(0.26458333)" /><path
       style="opacity:0.999749;fill:#d9d9d9;fill-opacity:1;fill-rule:evenodd;stroke-width:1.90197"
       d="m 389.72391,704.80456 v -10.04813 h 79.66731 79.66732 v 10.04813 10.04813 h -79.66732 -79.66731 z"
       id="path8665"
       transform="scale(0.26458333)" /><path
       style="opacity:0.999749;fill:#d9d9d9;fill-opacity:1;fill-rule:evenodd;stroke-width:1.90197"
       d="m 389.72391,650.25757 v -10.04813 h 79.66731 79.66732 v 10.04813 10.04813 h -79.66732 -79.66731 z"
       id="path8667"
       transform="scale(0.26458333)" /></g></svg>
